<svg xmlns="http://www.w3.org/2000/svg" width="136.874" height="120.76" viewBox="0 0 136.874 120.76">
  <path id="Path_1" data-name="Path 1" d="M111.624,78.441h0m-2.31-13.021c.42-.1-.63.315,0,.21-.1-.105.525-.315,0-.21m27.092.525ZM115.929,81.172Zm-9.136-1.47h.105c-.21,0-.315.1-.525.1.21,0,.315-.1.42-.1M17.641,109.314h.105c-.105,0-.105,0-.105-.1v.1M62.27,45.889h0c-.105-.105-.105-.105-.105,0l.21.21Zm69.516,22.262h0l.105-.105c0,.105,0,.105-.105.105M115.719,81.382h0c-.21.105-.21.21-.315.21.105-.105.21-.105.315-.21m-90.412-2.1a.21.21,0,1,1,.21-.21.226.226,0,0,1-.21.21m-1.26,11.656c0,.21-.105.315-.105.525a.813.813,0,0,1-.105.315h.105v.105h0c.105.105,0,.21,0,.315v.1h0c.105,0,.105.1.105.21v.21l-.21.105c-.21.105-.315.105-.315.21h0v.315c0,.105.105.315.105.42v.1l-.105.105a.545.545,0,0,0-.21.42c0,.105-.105.21-.105.315.105.105.105.105.105.21h.105l-.315.105v.315l-.105.1h-.105l.42.21-.42.21a.546.546,0,0,0-.21.42c0,.21,0,.42-.21.525v.1l.21.42-.42-.105c-.105.105-.105.21-.105.42h0c.105.105.315.21.21.42v.21h-.315c0,.105-.105.105-.105.21-.105.21-.21.315-.105.42l.105.525-.42-.21h0l-.105.42a.1.1,0,0,0,.105-.105v.315l.105.42h0v.105l-.105.105c0,.1,0,.1-.105.21h0a.386.386,0,0,1-.105.315l-.105.1h0v.21l-.105.1h0a.419.419,0,0,1-.21.42h-.105a.1.1,0,0,1-.105.105h0c0,.105.105.21.105.315l.105.105.21.315h-.42a.386.386,0,0,0-.315.105.1.1,0,0,0-.105.105v.105c0,.21-.105.315,0,.42h0v.21l-.105.105a.367.367,0,0,1-.21.1h0l.21.105-.21.21c-.105,0-.105.105-.21.105l.21.21-.105-.105v.735h0l-.21.315c-.21.21-.21.42-.315.735a2,2,0,0,1-.525,1.05.1.1,0,0,0,.105.1l.105.315H18.8c0,.21-.21.315-.315.42a.1.1,0,0,0-.105.1l.21.1-.21.315c0,.105,0,.105-.105.21v.1a.1.1,0,0,1-.105.105v.21l-.105.1a.325.325,0,0,1-.21.105h0l.21.1v.105l.105.105-.105.21c0,.105-.105.21-.21.315,0,.105-.105.105-.21.315l-.21.21-.105.105a.367.367,0,0,1-.21.1h-.945l-.42.21.21-.21-.42-.1.21-.105a.367.367,0,0,0-.21-.105l-.105-.105h-.21v-.315a.367.367,0,0,1-.105-.21h0l-.21-.21.105-.105a.2.2,0,0,1,0-.315l.105-.105v-.1c-.105-.105-.21-.21-.21-.315v-.1l-.21-.315h.21v-.21c-.105-.105-.105-.21-.105-.42l-.105-.315h.21l-.105-.21H14.7l-.21-.21v-.42H14.6v-.1H14.7v-.42l-.42.105.315-.42a4.549,4.549,0,0,1,.105-.525c0-.105.105-.21.105-.315v-.21h0v-.42c0-.1.105-.1.21-.21a.386.386,0,0,1,.105-.315l.105-.1h0c0-.105.105-.21.105-.315l.105-.21.21.105v-.42h.315l.105-.105c.105-.21.315-.21.42-.315a.367.367,0,0,1-.105-.21.1.1,0,0,1-.105-.1.386.386,0,0,1-.105-.315v-.105h0c.105-.105.21-.21.315-.21h.21a.1.1,0,0,1,.105-.105h0l-.105-.1v-.105h0c0-.105-.105-.21,0-.315v-.105h.21l.105-.1h0l.105-.105a.367.367,0,0,1-.105-.21l-.105-.21.21-.1c0-.105.105-.21.315-.21h0v-.1h0v-.105h.105c-.105-.105,0-.315,0-.42l.105-.21.21.105h.105l.105-.21h0V98.6a.419.419,0,0,1,.21-.42h.105l.21.105v-.315a.386.386,0,0,1,.105-.315v-.315l-.105-.1.63-.105h-.105c0-.105-.105-.21,0-.315L18.9,96.5h.21l.21-.21c0-.1,0-.1.105-.21l.105-.105v-.105c.105,0,.105,0,.21-.21.105-.105.21-.315.42-.315.105-.105.105-.315.21-.42h0c-.105-.21,0-.42.105-.42h.315c0-.105.105-.105.21-.21h0a.386.386,0,0,1,.105-.315c0-.21.105-.42.105-.63v-.1l.105-.105.105-.21.105.105h.315v-.315h0s-.105-.21,0-.315l.105-.105-.105-.315.315.105a.386.386,0,0,1,.105-.315l.315-.735v.315l.105-.105.105.42h.105L23,91.357a1.7,1.7,0,0,1,.21-.525l.105-.21h.21l.105.105.42.21ZM52.924,54.079a2.424,2.424,0,0,1,.525-.735l-.315.105.315-.525a.1.1,0,0,1,.1-.105l.105-.21c.105-.105.105-.21.21-.315,0-.105.105-.21.105-.315h0l.21-.63a.546.546,0,0,1,.42-.21c.105,0,.105,0,.105.1,0,0,.105,0,.21-.21,0-.105.105-.21.105-.315h-.21l-.21-.105.105-.315v-.105l.84-1.575.735-1.47h0l.315-.525.21-.42.21.105c.105-.105.105-.315.21-.42a.546.546,0,0,1,.21-.42v-.1h-.1v-.21l.21-.42h.105l.105-.21v-.21l.105-.1a1.449,1.449,0,0,0,.315-.42c.1-.1.1-.21.21-.315v-.42h.21v-.105a.959.959,0,0,1,.315-.525l.21-.21h0c0-.105.105-.105.105-.21l.105-.1a1.493,1.493,0,0,1,.21-.63.8.8,0,0,0,.21-.42l.105-.315.105.105c.105-.105.105-.21.21-.315a1.843,1.843,0,0,1,.42-.525,1.492,1.492,0,0,1,.21-.63c0-.105.1-.105.1-.21l.105-.21.105.105c0-.105,0-.105.105-.21l.1-.315.105.105v-.105c.105-.21.105-.42.315-.525-.1,0-.1-.105-.21-.105l-.105-.105.315-.525.105.105h.1l.1-.105h0l.105-.105v-.21h.105c0-.105,0-.105.105-.315.105-.105.21-.315.315-.315h0l.1-.105-.21-.105.105-.21.21-.21c0-.105.105-.21.105-.315s.105-.21.105-.315l-.105-.105A3.546,3.546,0,0,1,63.74,33.6a3.191,3.191,0,0,0,.525-.735l.105-.21a.367.367,0,0,1,.105-.21,5.119,5.119,0,0,0,.315-.735c.105-.105.21-.21.315-.21h0a1.6,1.6,0,0,1,.42-.63l.105.105a.617.617,0,0,0,.21-.525h.315l-.105-.105a2.3,2.3,0,0,1,.315-.525l.21-.315.105.21.315-.63c.105-.21.105-.42.315-.63v-.315a2.784,2.784,0,0,1,.63-.525c.1,0,.1-.105.21-.105.105-.105.105-.21.21-.315a.794.794,0,0,1,.105-.42h0a.645.645,0,0,1,.1-.63.578.578,0,0,1,.525-.315c.1,0,.21,0,.21.105h0c.1-.105.21-.315.315-.42s.1-.21.21-.315V25.1l.105-.105c.21-.21.21-.315.21-.315,0-.105,0-.21.21-.525a.325.325,0,0,1,.21-.105h0a.1.1,0,0,1,.105-.105.386.386,0,0,1,.315-.105h.105l.21-.21H71.2l.42-.42c-.1-.105-.1-.21-.1-.42v-.105h.1a.367.367,0,0,0,.105-.21.655.655,0,0,1,.525-.315h.105a.679.679,0,0,1,.21-.525l.105-.105v-.21h0a.1.1,0,0,0,.1-.105h0c0-.21.105-.315.21-.525l.21-.315H73.3l.21-.21c.1-.105.315-.21.315-.315v-.105h.105l.1-.105.105-.315.1.21h.315c.105,0,.21-.105.21-.315a1.844,1.844,0,0,1,.42-.525l.105-.105.315.315a2.3,2.3,0,0,0,.315-.525c.105-.21.21-.315.315-.525,0-.21.105-.315.315-.42l.21-.21.21-.315.21.21.105-.105a.226.226,0,0,1,.21-.21l-.105-.21.21-.105.315-.105a1.4,1.4,0,0,0,.315-.525c.1-.21.1-.42.42-.63l.42-.42-.105.42.315-.315c0-.105,0-.21.21-.42H79.6v-.21a1.633,1.633,0,0,0,.84-.63,2.479,2.479,0,0,1,.945-.63l.105-.105.84-.84.21-.21c0-.21.105-.315.42-.525h.315v.105h0c.21-.21.42-.42.63-.42h0l.21-.21c.1-.21.315-.315.525-.525h0a2.232,2.232,0,0,1,1.05-.945c.1,0,.1-.105.21-.105h0l.21-.105L86,9.241h0c.105,0,.105.105.21.21s.1.21,0,.42v.315l.1.105a.787.787,0,0,1,.1.525v.105a.417.417,0,0,1-.1.525v.315H86a4.465,4.465,0,0,1-.21,1.155h-.1a2.671,2.671,0,0,1-.21.735l-.105.21-.21-.21c-.105,0-.21.315-.315.42-.21.315-.315.63-.63.735a10.491,10.491,0,0,1-.84,1.47,2.2,2.2,0,0,1-.42.63h0c.105.105,0,.21-.105.315l.21.105-.105.21c-.105.21-.21.315-.21.42l-.525.525h-.21v.105a.829.829,0,0,1-.525.63.714.714,0,0,0-.315.42h-.105c0,.105-.105.105-.105.21a2.726,2.726,0,0,0-.42,1.05V21l-.1.105h-.105c-.105.21-.315.525-.42.735a4.315,4.315,0,0,1-.84,1.365h0c0,.105-.105.21-.21.315h0a2.3,2.3,0,0,1-.315.525l.21.84c-.105.21-.105.315-.21.525s-.21.525-.315.735l-.105.21-.21-.105c-.105,0-.21.105-.63.63l-.1.105a5.657,5.657,0,0,0-.735,1.365c-.105.315-.315.525-.42.84h-.105a5.95,5.95,0,0,0-1.05,1.155,6,6,0,0,1-.735.84.631.631,0,0,1-.105.42.367.367,0,0,0-.105.21c-.105.1-.105.315-.315.315h-.105l-.315.315h0l.315.315-.21.105a3.745,3.745,0,0,0-1.05,1.155c-.315.42-.525.84-.84.945,0,.105-.105.21-.105.315a.386.386,0,0,0-.105.315l-.105.315-.21-.21a14.176,14.176,0,0,0-.945,1.155l-.105.105v.105a1.332,1.332,0,0,1-.105.63l-.105.105-.315-.105c-.105.21-.315.315-.42.525a3.291,3.291,0,0,0-.84,1.155l-.315.525-.105-.21-.42.42-.105.42a5.865,5.865,0,0,0-.525.84l-.21.315h0c0,.105-.105.21-.21.42l-.105.105h0a.563.563,0,0,1-.315.42l-.105.105v.21a1.543,1.543,0,0,1-.63.525c0,.21-.105.315-.315.42l-.105.1h-.105a.546.546,0,0,0-.21.42.863.863,0,0,1-.525.525v.1l-.1-.1v-.105c-.105.105-.21.315-.42.42h0v.105l-.1.1.1.105a.577.577,0,0,1-.315.525v.525h-.21a1.774,1.774,0,0,0-.525.21c-.1.105-.21.105-.42.105a1.45,1.45,0,0,0-.315.42,2.719,2.719,0,0,0-.735,1.155.546.546,0,0,1-.42.21h0a4.185,4.185,0,0,0-.315.42l.105.21-.105.105a2.938,2.938,0,0,0-.63-.105h-.105l-.42.525v-.315a5.824,5.824,0,0,0-.63.84,3.687,3.687,0,0,1-.84,1.05h0l-.315.21a12.585,12.585,0,0,0-1.26,1.155l-.525.525-.42.42c-.105.105-.21.21-.315.21a.772.772,0,0,1-.63.21h-.105l-.105.105a1.45,1.45,0,0,1-.42.315l-.21-.21h-.21l-.1-.105c.1,0,.1-.105.21-.21m52.4,11.236h0v-.21l-.1-.105v-.21c0-.21.1-.21.21-.21l.315-.105a.1.1,0,0,1,.105-.1c.105-.105.105-.105.21-.105h.21a.1.1,0,0,1,.105-.105.2.2,0,0,0,0-.315l.21-.315v-.21c.1-.21.1-.42.315-.525L107,62.69a.1.1,0,0,1,.1-.1.226.226,0,0,1,.21-.21h.105v-.1c0-.105.63-.525.63-.525h0c.1-.105.1-.21.1-.42a2.7,2.7,0,0,1,.21-.525h.1c.105,0,.21-.105.315-.21a.8.8,0,0,0,.21-.42v-.1h0l.21-.21.21-.315c.105,0,.21-.105.315-.21s.21-.315.42-.42V58.8l.315-.105.21-.21c-.1-.1.315-.525.315-.525l.105-.1a6.218,6.218,0,0,0,.63-.42l.21-.315h-.105a1.058,1.058,0,0,0,.105-.315l.1-.42v.105l.105-.105a.1.1,0,0,1,.105-.1h0q0-.158.315-.315h0l.1-.105.21-.105a.455.455,0,0,1,.42-.21h0a.386.386,0,0,1,.105-.315v-.105l.315-.21c.105,0,.21.1.315.1h.105c.105-.1.21-.21.105-.315V54.5l.105-.21h.21l.21-.315h.105l.21-.1v.1a.1.1,0,0,1,.105-.1.8.8,0,0,1,.21-.42h0l.315-.1a2.3,2.3,0,0,0,.525-.315l.105-.105a1.134,1.134,0,0,1,.735-.315h.105V52.5l.315-.21c.105,0,.105-.105.21-.105s.21,0,.21.105v-.21l.315.105h.315l.1.105.21.105v.21h.105l.105.105h.1v.21c0,.21-.1.42-.1.63s-.105.315-.105.525v.21h0l-.105.315v.1l.105.42-.21-.21v.1h0l-.105.315.105.105-.315.105v.42h-.21a.226.226,0,0,1-.21.21h-.105a.386.386,0,0,1-.105.315v.42l-.21-.105-.105.105v.63l-.105-.105v.21l-.21.525-.105.105h-.1l-.105.105-.105.105-.105.1V58.7a.655.655,0,0,1-.315.525c-.105.105-.105.105-.105.21l-.105.21h0v.21l-.105.1-.1.105h-.105c0,.105-.105.105-.21.21l-.1.105h0a.226.226,0,0,1-.21.21l-.21.105-.105-.105h0c0,.105,0,.105-.1.21l.1.21-.1.105c-.105.105-.21.105-.42.105h0v.21c.105.105-.42.525-.525.42l-.1.1h0v.21h-.105a.386.386,0,0,1-.1.315l-.105.105h-.525v.21l.1.21h-.21a.367.367,0,0,1-.21.105h-.1v.105h-.105c0,.105,0,.315-.1.315l-.105.21-.21-.21h0v.21h-.1l-.105.21h.105a.335.335,0,0,1-.315.315h-.105l-.105-.21a.325.325,0,0,1-.105.21c0,.105,0,.21-.21.315l-.21.21h-.1V64.9l-.945.315c.525,0-.42.1-.21.21a1.656,1.656,0,0,1-.42.105h0l-.945.21c-.21,0,.315-.1.21-.1-.735.21-.315,0-.735.1.1,0-.21.105-.63.21l.525-.105c-.945.315-.84.105-1.785.42l.315-.105a18.883,18.883,0,0,0-2.31.63c-.1,0-.21,0,0-.1-.21,0-.315.1-.525.1.735-.525,1.365-1.05,2-1.47m30.768.945.315-.21h0c.105-.105.105-.21,0-.42-.105-.105-.315-.21-.42-.105h0c-.945.63-2,1.26-2.94,1.89h0l-.1.105c-.21.105-.315.21-.525.315a.1.1,0,0,1,.1-.105,3.269,3.269,0,0,0-.63.42h0l-.315.21c.1-.105-.105,0,.1-.105-.63.315-.945.735-1.26.735h0c-.525.42-.42.315-.42.315-.105.105-.315.21-.42.315l-.315.105v.1c-.105,0-.315.105-.21.105-.315.21.1,0-.105.105h0c-.42.21-1.155.735-1.365.63-.105.105.42-.21,0,.105-.21,0-.525.315-.945.525.105-.1.525-.315,0-.1a11.457,11.457,0,0,1-1.155.63c0,.105-.735.42-1.26.84l-1.68.84h0a6.678,6.678,0,0,1-1.05.63c0-.105,0-.105.21-.21l-.42.21c-.105.1-.21.1-.42.315l.105-.1a6.277,6.277,0,0,1-1.68.84s.21,0,.21.105c-.105.1-.21.1-.315.21a.1.1,0,0,1,.105-.105c-.105,0-.21.105-.315.21l.21-.21c-.315.105-.1.105-.42.21,0,0-.21.105-.21,0,.105,0,.21-.105.315-.105-.315.105-.63.315-.735.315,0,0,0,.1-.21.21-.525.21-.21,0-.525.105-.1.1-.42.21-.42.315a.325.325,0,0,1-.21.105c-.21.21-1.26.63-.945.525h.105c-.84.525-1.89.735-2.73,1.155h0c-.525.21-1.155.525-1.575.735-.21.105-.42.105-.315,0a5.39,5.39,0,0,1-1.05.42c.42-.21-.105,0,.42-.21-.525.21-.63.21-1.26.42.21-.105-.42,0-.735.105l.42-.105a2.471,2.471,0,0,1-.84.21l.105-.1c-1.155.21-2,.735-2.835.63-.315.105.63,0,.315.105a4.885,4.885,0,0,1-1.26,0,5.936,5.936,0,0,1-1.365,0c.105,0,.21.1-.42.1-.525-.1-.63-.315-.315-.21a.367.367,0,0,1,.21.105c.21,0,.42.1.21,0H102.8c-.21-.105-.945-.315-.735-.315-.42-.1-.21,0,.105.105a6.7,6.7,0,0,1-1.47-.84c.105.105.105.21,0,.105-.42-.315-.42-.42-.525-.42s-.105,0-.315-.315c-.105-.315.1.105-.21-.525,0-.315.105-.105.105,0a.694.694,0,0,1,.105-.63,2.3,2.3,0,0,1,.315-.525c0,.1-.105.21-.105.315.105-.21.105-.315.21-.42l-.105.105a1.3,1.3,0,0,1,.21-.315c.105-.21-.21.105,0-.315.21-.21.42-.63.525-.63-.525.63.1,0-.315.525a1.45,1.45,0,0,0,.315-.42v.105c.525-.525.1-.315.735-.84,0,.105.21,0,.315-.1-.21.21-.21,0,0-.21.42-.21.42-.315.735-.42l.21-.42a6.22,6.22,0,0,1,.63-.42s-.315.21-.21.1c.315-.315.84-.315,1.365-.63.21-.105.105.105.315,0,.525-.315.63-.21,1.26-.525-.21,0-.21,0,.21-.21l-1.05.42.63-.315a4.321,4.321,0,0,1-.84.315c.315-.21.315-.105.105-.105a11.778,11.778,0,0,0,1.365-.525v.105c.735-.21,1.26-.525,2.31-.945l-.315.105c.1-.105.63-.21.84-.42,0,.1.21,0,.315,0,0,0,.735-.315.735-.42l.42-.1a11.538,11.538,0,0,0,1.47-.945c-.21.21.105,0-.315.315.21-.1.42-.21.42-.315a5.864,5.864,0,0,1,.84-.525l.315-.315h0s.315-.315.1-.21a9.685,9.685,0,0,0,.84-.525c.105-.105.525-.315.945-.63h.105c.735-.42,1.47-1.05,1.575-1.05l.1-.1a.367.367,0,0,1,.21-.105,8,8,0,0,0,.945-.735,5.486,5.486,0,0,0,1.89-1.785,9.07,9.07,0,0,0,1.05-1.68,11.641,11.641,0,0,0,.945-2h.105c.21-.84.525-1.89.735-3.045.105-.735.21-1.47.315-2.31a6.319,6.319,0,0,0,0-2c-.1-.1-.1-.315-.21-.84v-.21l-.105-.42c0-.105-.105-.21-.105-.315l-.1-.21c0-.105-.105-.21-.105-.315l-.1-.21c-.105-.105-.105-.21-.21-.315l-.21-.42a6.894,6.894,0,0,0-1.785-2.205.367.367,0,0,0-.21-.105l-.1-.1a.386.386,0,0,0-.315-.105l-.21-.105-.42-.105h-.21a3.479,3.479,0,0,0-1.575.42l-.21-.315-.105.21.21.105a.325.325,0,0,0-.21.105,7.234,7.234,0,0,1-.84.315,14.067,14.067,0,0,1-1.26.63l-.42.21a12.325,12.325,0,0,1-1.155.525,19.659,19.659,0,0,0-3.045,2.1l-.735.525c-.84.63-1.68,1.26-2.31,1.68h0a3.351,3.351,0,0,1-.63.735l-1.365,1.365c-.735.735-1.575,1.47-2.31,2.205-.315.315-.735.63-1.05.945l-.315.315v0a28.1,28.1,0,0,1-2.415,2.31l-.1-.105c-.84.735-1.575,1.47-2.415,2.205l-1.155,1.05-1.155,1.05-.63.63-.525.42a9.467,9.467,0,0,1-1.05.945l-.42.315h0l.1.105.105.21-1.155.945-.735.525-.945.63.105-.21-.63.315h0a1.224,1.224,0,0,1-.735.21h-.525l.21-.21c-.105,0-.105-.105-.21-.105a.367.367,0,0,1-.105-.21v-.105l.105-.21.21-.21.735-1.365.315-.63a3.448,3.448,0,0,1,.525-1.47c.84-2,.945-2,1.05-2.1a3.739,3.739,0,0,0,.42-.84c.1-.315.315-.84.525-1.365s.525-1.26.63-1.47h0l.1-.105c.315-.735.525-.945.63-1.26.105-.1.105-.21.21-.21a7.238,7.238,0,0,0,.315-.84,3.916,3.916,0,0,0,.21-1.26,1.947,1.947,0,0,0-.21-.735,2.2,2.2,0,0,0-.42-.63,4.112,4.112,0,0,0-1.05-.84,3.116,3.116,0,0,0-1.155-.42h-.21v.105h-.945l-.21.105c-.105,0-.21.1-.42.1-.21.105-.315.105-.525.21s-.315.21-.525.315A12.774,12.774,0,0,0,86,55.97l-.63.63-1.05,1.05-1.68,1.68c-.735.735-1.365,1.575-2.1,2.31l-1.05,1.26c-.945,1.05-2.1,2.31-3.255,3.36l-.42-.105a7.405,7.405,0,0,1-.945.735L72.036,69.1c-.105.1-.315.21-.42.315l-.21.21a7.359,7.359,0,0,1-1.05.84c-.105.1-.21.1-.315.21-.105,0-.105.105-.21.105a1.126,1.126,0,0,1-.63.21.577.577,0,0,1-.525-.315.787.787,0,0,1-.105-.525.947.947,0,0,1,.105-.525c0-.21.105-.315.105-.525a6.141,6.141,0,0,1,1.05-2c.525-1.155.84-1.785,1.26-2.625.42-.735.84-1.47,1.575-2.73l.42-.735.105.105c.84-1.365,1.47-2.52,2.625-4.83h.1c.21-.315.525-.945.945-1.68h-.105l.525-.945c.735-1.365,1.365-2.625,1.89-3.885l.21.105c.1-.315.21-.525.315-.84a3.233,3.233,0,0,0,0-2,2.287,2.287,0,0,0-.525-.84,4.569,4.569,0,0,0-.735-.63,2.632,2.632,0,0,0-.735-.42l-.63-.315-.315-.21c-.1,0-.1-.105-.21-.105h-.21a.8.8,0,0,0-.42.21l-.42.42-.21.315a9.588,9.588,0,0,0-.84,1.365l-.525.945-1.155,1.89c-.525.84-1.05,1.68-1.47,2.52a1.405,1.405,0,0,1-.105.525c-1.05,1.785-2.205,3.57-2.94,4.83-.525.945-1.05,1.68-1.26,2a31.031,31.031,0,0,0-2.1,3.99l-.105.21A25.39,25.39,0,0,1,62.9,67.1v.21a12.669,12.669,0,0,1-1.365,2.52l-.63.945a2.29,2.29,0,0,1-.42.525l-.105.105a6,6,0,0,1-.735.84.325.325,0,0,1-.21.105H59.33l-.21.21a9.09,9.09,0,0,0-.945,1.26h.1c-.525.63-.945,1.155-1.365,1.68-.1.21-.315.315-.525.525l-.735.735a9.184,9.184,0,0,1-1.05.84,13.417,13.417,0,0,1-2.205,1.47c-.42.21-.84.525-1.26.735l-.42.21c0,.1-.105.21-.42.315a5.238,5.238,0,0,1-1.785.735H48.3a1.192,1.192,0,0,1-.84-.315,1.4,1.4,0,0,1-.315-.525c.1-.21.1-.315,0-.42a3.255,3.255,0,0,1-.21-.735v-.315c-.105-.42-.105-.945-.21-1.785,0-.735,0-1.05.105-1.155v-.525a12.891,12.891,0,0,1,.1-1.785c.21-1.26.315-1.47.42-1.47a3.066,3.066,0,0,1,.21-.945c.105-.525.21-.945.315-1.365l.315-1.05.105-.105,1.68-1.26a18.279,18.279,0,0,0,1.47-1.26h0l-.1-.105c.42-.315.735-.63,1.05-.84a8.856,8.856,0,0,1,.84-.735h0v-.105c-.1-.21,0-.315.945-1.26.63-.525,1.365-1.365,2.205-2.1a11.44,11.44,0,0,1,2.1-1.89l.21.21a16.435,16.435,0,0,0,1.68-1.785,37.23,37.23,0,0,1,2.625-2.94l.105.1a4,4,0,0,1,.63-.525c0-.105.21-.525,1.365-1.785,1.26-1.26,1.785-2,2.31-2.52l-.21-.315a11.727,11.727,0,0,1,1.47-1.89q.63-.788,1.575-1.89h.105l1.575-1.89c1.155-1.26,2.415-2.835,3.675-4.41.42-.525.63-.735.84-.735l.42-.42c.42-.63.84-1.155,1.155-1.575l-.315-.21.525-.735-.105-.105a45.476,45.476,0,0,0,3.15-4.305c.735-1.05,1.47-2.1,2.205-3.255l.21-.21.21.315a59.768,59.768,0,0,0,3.675-5.985c1.05-1.89,2-3.675,2.835-5.565h0a12,12,0,0,1,.63-1.47c.525-1.26,1.26-2.94,1.68-4.305h.42l-.21-.105h-.105a1.254,1.254,0,0,0,.21-.525l.525-1.365c0-.105.105-.315.21-.84q.157-.63.315-1.575c.105-.525.21-1.26.315-1.89a2.449,2.449,0,0,0-.21-1.155,3.682,3.682,0,0,0-.63-1.47A3.745,3.745,0,0,0,92.407.84,5.17,5.17,0,0,0,90.622.21,2.664,2.664,0,0,0,89.362,0h-.315a5.27,5.27,0,0,0-1.26.21,5.119,5.119,0,0,0-1.155.42,22.216,22.216,0,0,0-2.1,1.26l-.315.21c-.315.21-.525.42-.84.63-.21.21-.525.315-.735.525l-.735.42-.21-.21a1.45,1.45,0,0,0-.42.315h0l-.1.105a13.649,13.649,0,0,0-2.31,1.785l-.945.735c-.63.525-1.26,1.05-1.68,1.365-.21.105-.315.315-.42.42a13.542,13.542,0,0,1-1.68,1.575l-.105.105-.84.84.1.105a63.251,63.251,0,0,0-7.036,7.036,73.542,73.542,0,0,0-5.04,6.406l-.84,1.05a105.8,105.8,0,0,0-5.67,10.186h0a27.15,27.15,0,0,0-1.365,2.94,41.986,41.986,0,0,1-1.785,3.99c-.42.735-.42.735-.63.735h-.1c-.315.735-.735,1.68-1.155,2.52-.735,1.575-1.47,3.36-2.205,4.725h0c-.63,1.47-1.365,3.15-2.205,5.145-.525,1.365-1.155,2.835-1.785,4.41h0l-.42,1.05-.21.42-.105.21-.42.525c-.735.735-1.47,1.68-2.31,2.52-1.365,1.47-2.73,2.94-3.99,4.305h-.105l-.105.315-.525.63h0l-.21.21-.42-.315.315-.525.21-.42h0a22.269,22.269,0,0,1,1.47-2.205h0l.945-1.89.42-.735h.105a14.656,14.656,0,0,0,1.155-2.835,7.755,7.755,0,0,0,.21-1.26,2.117,2.117,0,0,0-.315-1.155,3.813,3.813,0,0,0-.945-.84,7.618,7.618,0,0,0-1.26-.525h-.105a1.557,1.557,0,0,0-.735-.1.631.631,0,0,0-.42.1c.1.21,0,.315-.105.315a9.468,9.468,0,0,0-.945,1.05h.105c-.315.525-.63.945-.84,1.365l-.525.84c0,.105-.105.105-.105.21l-.21.21a14.676,14.676,0,0,0-2.1,2.205c-.21.105-.315.21-.525.315l-.315.1-3.99,4.515a22,22,0,0,0-1.47,1.785l-2,2.415-.105-.105c-.105.105-.21.315-.42.525A46.371,46.371,0,0,1,18.271,77.5l-.42.63.105-.315c-.21.21-.525.42-.735.63a35.014,35.014,0,0,1-3.36,2.52,15.018,15.018,0,0,1-2.205,1.155,5.222,5.222,0,0,1-1.68.315,1.332,1.332,0,0,1-.63-.105,1.589,1.589,0,0,1-1.155-1.26,6.146,6.146,0,0,1-.21-1.365,24.66,24.66,0,0,1-.105-2.73v-1.68c0-.315.105-.735.105-1.05a31.352,31.352,0,0,1,1.47-5.565c.525-1.575,1.26-3.36,2.205-5.565.735-1.785,1.47-3.255,2.205-4.725h0c-.105-.105-.105-.21.42-1.05l.21-.42a2.753,2.753,0,0,1,.525-.945l-.21.105.315-.63a24.929,24.929,0,0,0,1.47-2.625h0c1.155-1.785,2.31-3.57,3.465-5.145.21-.315.315-.42.42-.42h.105a3.33,3.33,0,0,1,.525-.63,7.7,7.7,0,0,0,.945-1.26,1.624,1.624,0,0,1,.315-.63h-.315c1.785-2.625,2.625-3.675,3.465-4.725a9.182,9.182,0,0,0,.84-1.05l.525-.63a11.159,11.159,0,0,0,.945-1.155l1.26-1.575.105.105c1.05-1.26,2.415-2.73,3.675-4.2l.63-.63.945-.945,1.47-1.47c.525-.42.945-.84,1.365-1.155a2.785,2.785,0,0,1,.63-.525.82.82,0,0,0,.42-.42c.63-.42.63-.42.735-.42h.105c.42-.21.735-.525,1.155-.735l.525-.315,1.26-.63a5.275,5.275,0,0,1,1.365-.525,3.593,3.593,0,0,1,1.365-.21h.105a.947.947,0,0,1,.525.105,1.4,1.4,0,0,1,.525.315l.105.105c.105.105.105.21.21.315l.105.315c0,.105.105.105.105.21l.105.21c.21.42.525.945.735,1.365a8.821,8.821,0,0,0,1.89,2.52,2.782,2.782,0,0,0,1.47.735h.21a1.332,1.332,0,0,0,.63-.105,4.566,4.566,0,0,0,.735-.42,7.659,7.659,0,0,0,.945-1.155l.105-.21v-.105l.105-.315c0-.105.1-.315.1-.42l.1-.21c.21-.84.42-1.68.525-2.415h.1a6.861,6.861,0,0,0,0-1.47,22.581,22.581,0,0,0-.21-2.415h.1v-.105a6.51,6.51,0,0,0-1.155-2.31,5.632,5.632,0,0,0-2.415-2.52l.105-.105a3.145,3.145,0,0,0-1.05-.42,10.255,10.255,0,0,0-2.415-.63,9.609,9.609,0,0,0-1.68-.105,8.047,8.047,0,0,0-2.835.42,11.483,11.483,0,0,0-3.675,2c-1.155.945-2.205,1.89-3.36,2.94l-.21.105v-.105a20.357,20.357,0,0,0-2.415,2c-1.575,1.365-3.15,2.73-4.2,3.675h0c-1.68,1.575-3.045,3.045-4.305,4.41a27.8,27.8,0,0,0-1.785,2.31c-.525.735-1.05,1.575-1.575,2.31-1.89,2.73-3.675,5.565-6.2,9.556-.84,1.155-1.785,2.625-2.73,4.1-1.05,1.785-2.205,3.78-3.15,5.775-1.05,1.89-2.1,4.1-3.15,6.406l-1.47,3.15a21.127,21.127,0,0,0-1.05,2.415,8.279,8.279,0,0,1-.525,2.1v.1c-.315,1.05-.63,2.415-.84,3.255l-.42.21c-.21,1.26-.315,1.47-.525,1.47-.105.735-.315,1.68-.525,2.73Q.315,77.5,0,80.331l.315.525v.105A17.747,17.747,0,0,0,0,84.112a12.172,12.172,0,0,0,.525,3.57,7.6,7.6,0,0,0,2.1,3.255c.105.105.21.105.315.21l.525.315a3.145,3.145,0,0,0,.84.42,12.808,12.808,0,0,0,1.785.735,8.821,8.821,0,0,0,2,.315,2.61,2.61,0,0,0,.84-.1,7.235,7.235,0,0,0,.84-.315A12.328,12.328,0,0,0,12.6,90.937l3.885-2.73c.84-.735,1.575-1.575,2.31-2.205a16.288,16.288,0,0,0,2-2.415l.21-.315.105.21,2-2.31.315-.315c.315-.315.63-.84,1.05-1.26l.315.21-.21.315-2.73,4.2h-.105a14.919,14.919,0,0,0-1.365,2.415l-.105.105a23.116,23.116,0,0,1-2.1,3.255c-.315.21-.525.42-.84.63q-1.575,2.048-3.15,3.78l-.42.42-.84.84-.42.525c-.525.63-1.05,1.26-1.575,2a29.613,29.613,0,0,0-2.415,4.41,21.881,21.881,0,0,0-1.575,4.62H6.826c-.105.525-.315,1.155-.42,1.785a12.874,12.874,0,0,0-.105,3.99,9.481,9.481,0,0,0,.945,3.045,4.167,4.167,0,0,0,.42.63h0l-.21.21h.42a.325.325,0,0,0,.105.21c.105.21.315.42.525.735.105.1.105.21.21.315l.315.315.315.315.63.525c.105.105.315.21.42.315a.367.367,0,0,1,.21.1,6.515,6.515,0,0,0,3.36.945h.84l.84-.105c.21,0,.315-.105.525-.105l.63-.21.315-.105.105.105.42-.21a2.3,2.3,0,0,0,.525-.315l.42-.21a.546.546,0,0,1,.42-.21,1.265,1.265,0,0,0,.525-.525,14.318,14.318,0,0,0,2.31-3.36c.315-.525.42-.63.525-.63l.735-1.47.105-.105c.315-.63.63-1.365,1.47-3.255h.105a6.307,6.307,0,0,0,.525-1.47,5.119,5.119,0,0,1,.42-1.155l.21-.63,1.47-4.1a19.8,19.8,0,0,1,.945-2.31,30.538,30.538,0,0,1,.945-4.305l.105-.21h0c.63-2.205.84-3.99,1.155-5.565.21-1.05.315-2.1.42-3.15.105-.735.21-1.47.315-2.415,0,0,.105-.105.105-.525H31.5c0-.525.105-1.05.105-1.575v-2c0-.105.105-.21.105-.315l.315-.21.315-.315h0a12.586,12.586,0,0,1,1.26-1.155,10.456,10.456,0,0,0,1.155-1.05l.525-.525-.105-.105a35.753,35.753,0,0,1,3.465-3.465l.21-.315c.105-.105.105-.105.105-.21.105-.105.21-.315.315-.42a5.824,5.824,0,0,1,.63-.84l1.05-.84v.945l-.63,2c-.21.84-.42,1.68-.525,2.31-.1.525-.21.84-.21.945-.105.63-.105,1.47-.21,2.205v.21c0,.63-.1,1.365-.1,2a14.541,14.541,0,0,0,.525,4.62,5.866,5.866,0,0,0,2.625,3.465,5.414,5.414,0,0,0,2.835.735h.42a4.739,4.739,0,0,0,1.365-.1h.315a2.312,2.312,0,0,0,.84-.105h0c.1,0,.21-.105.315-.105a12.3,12.3,0,0,0,2.94-1.365,15.266,15.266,0,0,0,2.205-1.575A9.233,9.233,0,0,0,54.709,86a3.351,3.351,0,0,1,.735-.63l.21-.315v.42l.63-.84.105-.105h0v-.1h0v-.105l.315-.315h.105l.315-.315a6,6,0,0,1,.735-.84c.42-.525.84-1.155,1.26-1.785l1.155-1.68.735-1.155.315.945a2.072,2.072,0,0,1,.21.735,4.8,4.8,0,0,0,1.365,2.1,2.331,2.331,0,0,0,1.155.525h.42a2.61,2.61,0,0,0,.84-.1,7.335,7.335,0,0,0,2.205-1.155c1.785-1.365,3.465-2.94,5.355-4.62.63-.525,1.26-1.155,2-1.785h0l.315-.315.63-.63.945-.945c.63-.63,1.26-1.26,2-1.89l.945-.84.63-.63a1.884,1.884,0,0,1,.735-.525c.105,0,.105-.105.315-.105h.105l.105.105V69.2l-.21.63c-.1.315-.315.735-.42,1.05a6.693,6.693,0,0,1-.21.735v.21c-.1.21-.1.525-.21.735a9.558,9.558,0,0,0-.21,3.78,7.151,7.151,0,0,0,1.68,3.465c.21.21.525.42.735.63a1.694,1.694,0,0,0,.945.315h.525a6.145,6.145,0,0,0,1.365-.21,13.582,13.582,0,0,0,3.36-1.89c.84-.63,1.575-1.26,2.31-1.89l.63-.525c.525-.525,1.155-.945,1.68-1.47a10.46,10.46,0,0,0,1.155-1.05l.21-.21-.315.945a5.187,5.187,0,0,0-.525,1.785,7.749,7.749,0,0,0,0,2.205c0-.21.105,0,.105.21,0,.315.315.84.21.735v-.105a2.911,2.911,0,0,0,.525,1.26h.21A5.413,5.413,0,0,0,96.5,82.327c.63.525,1.155.84,1.47,1.155.315.105.63.315.945.42v.105a8.808,8.808,0,0,0,2.205.84h-.21c.63.21.735,0,1.365.1l.105.105a7.967,7.967,0,0,0,3.15.1s0,.105-.21.105c.21,0,.735-.105,1.155-.105s.735-.1.63-.21a4.891,4.891,0,0,0,1.575-.42l-.105.105a5.392,5.392,0,0,1,1.05-.42c.1,0,.1,0-.105.105.525-.105.315-.21.945-.315l-.21.105c.525-.21.42-.21.735-.315a9.71,9.71,0,0,1,1.05-.315c0-.105.315-.21.63-.315a.1.1,0,0,1-.105.105c.84-.315,1.155-.63,1.785-.84h.1c-.63.315-1.155.525-1.155.525,0,.105.525-.21.21.105.42-.21,1.05-.63,1.575-.945h.105c.1-.105.21-.105.315-.21.21-.105.315-.105.42-.21a6.2,6.2,0,0,0,.84-.42c-.105-.105.315-.21-.105-.105l-.21.105a.1.1,0,0,0-.105.1h0l-.63.315c.21-.105.42-.315.63-.42l.315-.315c.42-.1,1.05-.42,1.155-.42a9.048,9.048,0,0,0,2.1-1.47c.21-.105.21-.105.315-.105-.105.105-.21.21-.315.21a9.385,9.385,0,0,0,1.26-.945c.525-.315-.21.315.42-.21l-.1.105c1.47-.84,2.1-1.785,3.675-2.73a.325.325,0,0,1-.21.105c.84-.63,1.785-1.26,2.625-1.89s1.785-1.26,2.625-1.89a1.619,1.619,0,0,0,.735-.735h.105l.42-.42c.63-.63,1.26-.84,2.1-1.575h-.105c.315-.21.945-.84.945-.735l.21-.21h0l.735-.63c.63-.42,0,.21.84-.525.315-.315.84-.84.63-.735a3.73,3.73,0,0,0-.735.105m-19.952,10.4-.315.105a.518.518,0,0,0,.315-.105m-2.52-7.561h0c-.105,0-.105.1-.21.1.1,0,.1,0,.21-.1M101.438,75.5h0c-.1.105,0,.105,0,0m8.611-4.305h0m16.171.1h0m2-1.05.63-.315c-.105,0-.315.105,0-.105-.84.315.21-.1-.63.42M94.928,80.962a1.45,1.45,0,0,1,.315.42l-.105-.21ZM121.6,73.926h0c.105-.105.105-.105.21-.105Zm3.885-2.1c0-.105.1-.105.21-.105h-.1l-.1.105m-9.136,4.725Zm-13.231,3.255h0" fill="#03070D"/>
</svg>
