<?xml version="1.0" encoding="utf-8"?>
<!-- Generator: Adobe Illustrator 25.0.1, SVG Export Plug-In . SVG Version: 6.00 Build 0)  -->
<svg version="1.1" id="Layer_1" xmlns="http://www.w3.org/2000/svg" xmlns:xlink="http://www.w3.org/1999/xlink" x="0px" y="0px"
	 viewBox="0 0 136.9 120.8" style="enable-background:new 0 0 136.9 120.8;" xml:space="preserve">
<style type="text/css">
	.st0{fill:#FFFFFF;}
</style>
<path id="Path_1" class="st0" d="M111.6,78.4L111.6,78.4 M109.3,65.4c0.4-0.1-0.6,0.3,0,0.2C109.2,65.5,109.8,65.3,109.3,65.4z
	 M106.8,79.7h0.1c-0.2,0-0.3,0.1-0.5,0.1C106.6,79.8,106.7,79.7,106.8,79.7 M17.6,109.3h0.1C17.6,109.3,17.6,109.3,17.6,109.3
	L17.6,109.3 M62.3,45.9L62.3,45.9c-0.1-0.1-0.1-0.1-0.1,0l0.2,0.2L62.3,45.9z M131.8,68.2L131.8,68.2l0.1-0.1
	C131.9,68.2,131.9,68.2,131.8,68.2 M115.7,81.4L115.7,81.4c-0.2,0.1-0.2,0.2-0.3,0.2C115.5,81.5,115.6,81.5,115.7,81.4 M25.3,79.3
	c-0.1,0-0.2-0.1-0.2-0.2s0.1-0.2,0.2-0.2s0.2,0.1,0.2,0.2l0,0C25.5,79.2,25.4,79.3,25.3,79.3 M24,90.9c0,0.2-0.1,0.3-0.1,0.5
	c0,0.1,0,0.2-0.1,0.3h0.1v0.1l0,0c0.1,0.1,0,0.2,0,0.3v0.1l0,0c0.1,0,0.1,0.1,0.1,0.2v0.2l-0.2,0.1c-0.2,0.1-0.3,0.1-0.3,0.2l0,0
	v0.3c0,0.1,0.1,0.3,0.1,0.4v0.1L23.5,94c-0.1,0.1-0.2,0.3-0.2,0.4c0,0.1-0.1,0.2-0.1,0.3c0.1,0.1,0.1,0.1,0.1,0.2h0.1L23.1,95v0.3
	L23,95.4h-0.1l0.4,0.2l-0.4,0.2c-0.1,0.1-0.2,0.3-0.2,0.4c0,0.2,0,0.4-0.2,0.5v0.1l0.2,0.4l-0.4-0.1c-0.1,0.1-0.1,0.2-0.1,0.4l0,0
	c0.1,0.1,0.3,0.2,0.2,0.4v0.2h-0.3c0,0.1-0.1,0.1-0.1,0.2c-0.1,0.2-0.2,0.3-0.1,0.4l0.1,0.5l-0.4-0.2l0,0l-0.1,0.4
	c0.1,0,0.1,0,0.1-0.1c0,0,0,0,0,0v0.3l0.1,0.4l0,0v0.1l-0.1,0.1c0,0.1,0,0.1-0.1,0.2l0,0c0,0.1,0,0.2-0.1,0.3l-0.1,0.1l0,0v0.2
	l-0.1,0.1l0,0c0,0.2-0.1,0.3-0.2,0.4h-0.1c0,0.1,0,0.1-0.1,0.1c0,0,0,0,0,0l0,0c0,0.1,0.1,0.2,0.1,0.3l0.1,0.1l0.2,0.3h-0.4
	c-0.1,0-0.2,0-0.3,0.1c-0.1,0-0.1,0-0.1,0.1c0,0,0,0,0,0v0.1c0,0.2-0.1,0.3,0,0.4l0,0v0.2l-0.1,0.1c-0.1,0.1-0.1,0.1-0.2,0.1l0,0
	l0.2,0.1l-0.2,0.2c-0.1,0-0.1,0.1-0.2,0.1l0.2,0.2l-0.1-0.1v0.7l0,0l-0.2,0.3c-0.2,0.2-0.2,0.4-0.3,0.7c-0.1,0.4-0.2,0.8-0.5,1.1
	c0,0.1,0,0.1,0.1,0.1c0,0,0,0,0,0l0.1,0.3h-0.2c0,0.2-0.2,0.3-0.3,0.4c-0.1,0-0.1,0-0.1,0.1c0,0,0,0,0,0l0.2,0.1l-0.2,0.3
	c0,0.1,0,0.1-0.1,0.2v0.1c0,0.1,0,0.1-0.1,0.1c0,0,0,0,0,0v0.2l-0.1,0.1c-0.1,0.1-0.1,0.1-0.2,0.1l0,0l0.2,0.1v0.1l0.1,0.1l-0.1,0.2
	c0,0.1-0.1,0.2-0.2,0.3c0,0.1-0.1,0.1-0.2,0.3l-0.2,0.2l-0.1,0.1c-0.1,0.1-0.1,0.1-0.2,0.1h-0.9l-0.4,0.2l0.2-0.2l-0.4-0.1l0.2-0.1
	c-0.1-0.1-0.1-0.1-0.2-0.1l-0.1-0.1h-0.2v-0.3c-0.1-0.1-0.1-0.1-0.1-0.2l0,0l-0.2-0.2l0.1-0.1c-0.1-0.1-0.1-0.2,0-0.3c0,0,0,0,0,0
	l0.1-0.1v-0.1c-0.1-0.1-0.2-0.2-0.2-0.3v-0.1l-0.2-0.3h0.2v-0.2c-0.1-0.1-0.1-0.2-0.1-0.4l-0.1-0.3h0.2l-0.1-0.2h-0.1l-0.2-0.2v-0.4
	h0.1v-0.1h0.1v-0.4l-0.4,0.1l0.3-0.4c0-0.2,0.1-0.4,0.1-0.5c0-0.1,0.1-0.2,0.1-0.3v-0.2l0,0v-0.4c0-0.1,0.1-0.1,0.2-0.2
	c0-0.1,0-0.2,0.1-0.3l0.1-0.1l0,0c0-0.1,0.1-0.2,0.1-0.3l0.1-0.2l0.2,0.1v-0.4H16l0.1-0.1c0.1-0.2,0.3-0.2,0.4-0.3
	c-0.1-0.1-0.1-0.1-0.1-0.2c-0.1,0-0.1,0-0.1-0.1c0,0,0,0,0,0c-0.1-0.1-0.1-0.2-0.1-0.3v-0.1l0,0c0.1-0.1,0.2-0.2,0.3-0.2h0.2
	c0-0.1,0-0.1,0.1-0.1c0,0,0,0,0,0l0,0l-0.1-0.1v-0.1l0,0c0-0.1-0.1-0.2,0-0.3v-0.1h0.2l0.1-0.1l0,0l0.1-0.1
	c-0.1-0.1-0.1-0.1-0.1-0.2l-0.1-0.2l0.2-0.1c0-0.1,0.1-0.2,0.3-0.2l0,0v-0.1l0,0v-0.1h0.1c-0.1-0.1,0-0.3,0-0.4l0.1-0.2l0.2,0.1H18
	l0.1-0.2l0,0v-0.3c0-0.2,0.1-0.3,0.2-0.4h0.1l0.2,0.1V98c0-0.1,0-0.2,0.1-0.3v-0.3l-0.1-0.1l0.6-0.1h-0.1c0-0.1-0.1-0.2,0-0.3
	l-0.2-0.3h0.2l0.2-0.2c0-0.1,0-0.1,0.1-0.2l0.1-0.1v-0.1c0.1,0,0.1,0,0.2-0.2c0.1-0.1,0.2-0.3,0.4-0.3c0.1-0.1,0.1-0.3,0.2-0.4l0,0
	c-0.1-0.2,0-0.4,0.1-0.4h0.3c0-0.1,0.1-0.1,0.2-0.2l0,0c0-0.1,0-0.2,0.1-0.3c0-0.2,0.1-0.4,0.1-0.6v-0.1l0.1-0.1l0.1-0.2l0.1,0.1
	h0.3v-0.3l0,0c0,0-0.1-0.2,0-0.3l0.1-0.1L21.8,92l0.3,0.1c0-0.1,0-0.2,0.1-0.3l0.3-0.7v0.3l0.1-0.1l0.1,0.4h0.1l0.1-0.3
	c0-0.2,0.1-0.4,0.2-0.5l0.1-0.2h0.2l0.1,0.1L24,90.9L24,90.9z M52.9,54.1c0.1-0.3,0.3-0.5,0.5-0.7l-0.3,0.1l0.3-0.5
	c0-0.1,0-0.1,0.1-0.1c0,0,0,0,0,0l0.1-0.2c0.1-0.1,0.1-0.2,0.2-0.3c0-0.1,0.1-0.2,0.1-0.3l0,0l0.2-0.6c0.1-0.1,0.3-0.2,0.4-0.2
	c0.1,0,0.1,0,0.1,0.1c0,0,0.1,0,0.2-0.2c0-0.1,0.1-0.2,0.1-0.3h-0.2l-0.2-0.1l0.1-0.3v-0.1l0.8-1.6l0.7-1.5l0,0l0.3-0.5l0.2-0.4
	l0.2,0.1c0.1-0.1,0.1-0.3,0.2-0.4c0-0.2,0.1-0.3,0.2-0.4v-0.1h-0.1v-0.2l0.2-0.4h0.1l0.1-0.2v-0.2l0.1-0.1c0.1-0.1,0.2-0.3,0.3-0.4
	c0.1-0.1,0.1-0.2,0.2-0.3v-0.4h0.2V43c0-0.2,0.2-0.4,0.3-0.5l0.2-0.2l0,0c0-0.1,0.1-0.1,0.1-0.2l0.1-0.1c0-0.2,0.1-0.4,0.2-0.6
	c0.1-0.1,0.2-0.3,0.2-0.4l0.1-0.3l0.1,0.1c0.1-0.1,0.1-0.2,0.2-0.3c0.1-0.2,0.2-0.4,0.4-0.5c0-0.2,0.1-0.4,0.2-0.6
	c0-0.1,0.1-0.1,0.1-0.2l0.1-0.2l0.1,0.1c0-0.1,0-0.1,0.1-0.2l0.1-0.3l0.1,0.1v-0.1c0.1-0.2,0.1-0.4,0.3-0.5c-0.1,0-0.1-0.1-0.2-0.1
	l-0.1-0.1l0.3-0.5l0.1,0.1h0.1l0.1-0.1l0,0l0.1-0.1v-0.2h0.1c0-0.1,0-0.1,0.1-0.3c0.1-0.1,0.2-0.3,0.3-0.3l0,0l0.1-0.1l-0.2-0.1
	l0.1-0.2l0.2-0.2c0-0.1,0.1-0.2,0.1-0.3s0.1-0.2,0.1-0.3L63,34.8c0.2-0.4,0.4-0.8,0.8-1.2c0.2-0.2,0.4-0.5,0.5-0.7l0.1-0.2
	c0-0.1,0-0.2,0.1-0.2c0.1-0.2,0.2-0.5,0.3-0.7c0.1-0.1,0.2-0.2,0.3-0.2l0,0c0.1-0.2,0.2-0.5,0.4-0.6l0.1,0.1
	c0.2-0.1,0.2-0.3,0.2-0.5h0.3l-0.1-0.1c0.1-0.2,0.2-0.4,0.3-0.5l0.2-0.3l0.1,0.2l0.3-0.6c0.1-0.2,0.1-0.4,0.3-0.6v-0.3
	c0.2-0.2,0.4-0.4,0.6-0.5c0.1,0,0.1-0.1,0.2-0.1c0.1-0.1,0.1-0.2,0.2-0.3c0-0.1,0-0.3,0.1-0.4l0,0c-0.1-0.2,0-0.5,0.1-0.6
	c0.1-0.2,0.3-0.3,0.5-0.3c0.1,0,0.2,0,0.2,0.1l0,0c0.1-0.1,0.2-0.3,0.3-0.4s0.1-0.2,0.2-0.3v-0.1l0.1-0.1c0.2-0.2,0.2-0.3,0.2-0.3
	c0-0.1,0-0.2,0.2-0.5c0.1-0.1,0.1-0.1,0.2-0.1l0,0c0-0.1,0-0.1,0.1-0.1c0,0,0,0,0,0c0.1-0.1,0.2-0.1,0.3-0.1h0.1l0.2-0.2h-0.1
	l0.4-0.4c-0.1-0.1-0.1-0.2-0.1-0.4v-0.1h0.1c0.1-0.1,0.1-0.1,0.1-0.2c0.1-0.2,0.3-0.3,0.5-0.3h0.1c0-0.2,0.1-0.4,0.2-0.5l0.1-0.1
	v-0.2l0,0c0.1,0,0.1,0,0.1-0.1c0,0,0,0,0,0l0,0c0-0.2,0.1-0.3,0.2-0.5l0.2-0.3h0.1l0.2-0.2c0.1-0.1,0.3-0.2,0.3-0.3v-0.1h0.1
	l0.1-0.1l0.1-0.3l0.1,0.2h0.3c0.1,0,0.2-0.1,0.2-0.3c0.1-0.2,0.2-0.4,0.4-0.5l0.1-0.1l0.3,0.3c0.1-0.2,0.2-0.3,0.3-0.5
	c0.1-0.2,0.2-0.3,0.3-0.5c0-0.2,0.1-0.3,0.3-0.4l0.2-0.2l0.2-0.3l0.2,0.2l0.1-0.1c0-0.1,0.1-0.2,0.2-0.2l-0.1-0.2l0.2-0.1l0.3-0.1
	c0.1-0.1,0.3-0.3,0.3-0.5c0.1-0.2,0.1-0.4,0.4-0.6l0.4-0.4L79,15.2l0.3-0.3c0-0.1,0-0.2,0.2-0.4h0.1v-0.2c0.3-0.1,0.6-0.3,0.8-0.6
	c0.3-0.3,0.6-0.5,0.9-0.6l0.1-0.1l0.8-0.8l0.2-0.2c0-0.2,0.1-0.3,0.4-0.5h0.3v0.1l0,0c0.2-0.2,0.4-0.4,0.6-0.4l0,0l0.2-0.2
	c0.1-0.2,0.3-0.3,0.5-0.5l0,0c0.2-0.4,0.6-0.8,1.1-0.9c0.1,0,0.1-0.1,0.2-0.1l0,0l0.2-0.1L86,9.2l0,0c0.1,0,0.1,0.1,0.2,0.2
	s0.1,0.2,0,0.4v0.3l0.1,0.1c0.1,0.2,0.1,0.3,0.1,0.5v0.1c0.1,0.2,0.1,0.4-0.1,0.5v0.3H86c0,0.4-0.1,0.8-0.2,1.2h-0.1
	c0,0.3-0.1,0.5-0.2,0.7l-0.1,0.2l-0.2-0.2c-0.1,0-0.2,0.3-0.3,0.4c-0.2,0.3-0.3,0.6-0.6,0.7c-0.2,0.5-0.5,1-0.8,1.5
	c-0.1,0.2-0.2,0.4-0.4,0.6l0,0c0.1,0.1,0,0.2-0.1,0.3l0.2,0.1L83,17.5c-0.1,0.2-0.2,0.3-0.2,0.4l-0.5,0.5H82v0.1
	c-0.1,0.3-0.3,0.5-0.5,0.6c-0.2,0.1-0.3,0.2-0.3,0.4h-0.1c0,0.1-0.1,0.1-0.1,0.2c-0.2,0.3-0.4,0.7-0.4,1V21l-0.1,0.1h-0.1
	c-0.1,0.2-0.3,0.5-0.4,0.7c-0.2,0.5-0.5,1-0.8,1.4l0,0c0,0.1-0.1,0.2-0.2,0.3l0,0c-0.1,0.2-0.2,0.4-0.3,0.5l0.2,0.8
	c-0.1,0.2-0.1,0.3-0.2,0.5s-0.2,0.5-0.3,0.7l-0.1,0.2l-0.2-0.1c-0.1,0-0.2,0.1-0.6,0.6L77.2,27c-0.3,0.4-0.6,0.9-0.7,1.4
	c-0.1,0.3-0.3,0.5-0.4,0.8h-0.1c-0.4,0.3-0.8,0.7-1.1,1.2c-0.2,0.3-0.5,0.6-0.7,0.8c0,0.1,0,0.3-0.1,0.4c-0.1,0.1-0.1,0.1-0.1,0.2
	c-0.1,0.1-0.1,0.3-0.3,0.3h-0.1l-0.3,0.3l0,0l0.3,0.3l-0.2,0.1c-0.4,0.3-0.8,0.7-1.1,1.2c-0.3,0.4-0.5,0.8-0.8,0.9
	c0,0.1-0.1,0.2-0.1,0.3c-0.1,0.1-0.1,0.2-0.1,0.3l-0.1,0.3l-0.2-0.2c-0.3,0.4-0.7,0.8-0.9,1.2L69.8,37v0.1c0,0.2,0,0.4-0.1,0.6
	l-0.1,0.1l-0.3-0.1c-0.1,0.2-0.3,0.3-0.4,0.5c-0.4,0.3-0.6,0.7-0.8,1.2l-0.3,0.5l-0.1-0.2l-0.4,0.4l-0.1,0.4
	c-0.2,0.3-0.4,0.5-0.5,0.8l-0.2,0.3l0,0c0,0.1-0.1,0.2-0.2,0.4l-0.1,0.1l0,0c0,0.2-0.1,0.3-0.3,0.4l-0.1,0.1v0.2
	c-0.2,0.2-0.4,0.4-0.6,0.5c0,0.2-0.1,0.3-0.3,0.4L64.6,44h-0.1c-0.1,0.1-0.2,0.3-0.2,0.4c-0.1,0.2-0.3,0.4-0.5,0.5V45l-0.1-0.1v-0.1
	c-0.1,0.1-0.2,0.3-0.4,0.4l0,0v0.1l-0.1,0.1l0.1,0.1c0,0.2-0.1,0.4-0.3,0.5v0.5h-0.2c-0.2,0-0.4,0.1-0.5,0.2
	c-0.1,0.1-0.2,0.1-0.4,0.1c-0.1,0.1-0.2,0.3-0.3,0.4c-0.3,0.3-0.6,0.7-0.7,1.2c-0.1,0.1-0.3,0.2-0.4,0.2l0,0
	c-0.1,0.1-0.2,0.3-0.3,0.4l0.1,0.2L60,49.4c-0.2-0.1-0.4-0.1-0.6-0.1h-0.1l-0.4,0.5v-0.3c-0.2,0.3-0.4,0.5-0.6,0.8
	c-0.2,0.4-0.5,0.8-0.8,1l0,0L57,51.6c-0.4,0.4-0.9,0.7-1.3,1.2l-0.5,0.5l-0.4,0.4c-0.1,0.1-0.2,0.2-0.3,0.2
	c-0.2,0.2-0.4,0.2-0.6,0.2h-0.1l-0.1,0.1c-0.1,0.1-0.3,0.2-0.4,0.3L53,54.4h-0.2l-0.1-0.1C52.8,54.3,52.8,54.2,52.9,54.1
	 M105.3,65.3L105.3,65.3v-0.2l-0.1-0.1v-0.2c0-0.2,0.1-0.2,0.2-0.2l0.3-0.1c0-0.1,0-0.1,0.1-0.1c0,0,0,0,0,0
	c0.1-0.1,0.1-0.1,0.2-0.1h0.2c0-0.1,0-0.1,0.1-0.1c0,0,0,0,0,0c0.1-0.1,0.1-0.2,0-0.3c0,0,0,0,0,0l0.2-0.3v-0.2
	c0.1-0.2,0.1-0.4,0.3-0.5l0.1-0.1c0-0.1,0-0.1,0.1-0.1c0-0.1,0.1-0.2,0.2-0.2h0.1v-0.1c0-0.1,0.6-0.5,0.6-0.5l0,0
	c0.1-0.1,0.1-0.2,0.1-0.4c0.1-0.2,0.1-0.4,0.2-0.5h0.1c0.1,0,0.2-0.1,0.3-0.2c0.1-0.1,0.2-0.3,0.2-0.4v-0.1l0,0l0.2-0.2l0.2-0.3
	c0.1,0,0.2-0.1,0.3-0.2s0.2-0.3,0.4-0.4v-0.1l0.3-0.1l0.2-0.2c-0.1-0.1,0.3-0.5,0.3-0.5l0.1-0.1c0.2-0.1,0.4-0.3,0.6-0.4l0.2-0.3
	h-0.1c0.1-0.1,0.1-0.2,0.1-0.3l0.1-0.4v0.1l0.1-0.1c0-0.1,0-0.1,0.1-0.1c0,0,0,0,0,0l0,0c0-0.1,0.1-0.2,0.3-0.3l0,0l0.1-0.1l0.2-0.1
	c0.1-0.1,0.3-0.2,0.4-0.2l0,0c0-0.1,0-0.2,0.1-0.3v-0.1l0.3-0.2c0.1,0,0.2,0.1,0.3,0.1h0.1c0.1-0.1,0.2-0.2,0.1-0.3v-0.2l0.1-0.2
	h0.2l0.2-0.3h0.1l0.2-0.1V54c0-0.1,0-0.1,0.1-0.1c0,0,0,0,0,0c0-0.2,0.1-0.3,0.2-0.4l0,0l0.3-0.1c0.2-0.1,0.4-0.2,0.5-0.3l0.1-0.1
	c0.2-0.2,0.5-0.3,0.7-0.3h0.1v-0.1l0.3-0.2c0.1,0,0.1-0.1,0.2-0.1s0.2,0,0.2,0.1v-0.2l0.3,0.1h0.3l0.1,0.1l0.2,0.1v0.2h0.1l0.1,0.1
	h0.1v0.2c0,0.2-0.1,0.4-0.1,0.6s-0.1,0.3-0.1,0.5v0.2l0,0l-0.1,0.3v0.1l0.1,0.4l-0.2-0.2V55l0,0l-0.1,0.3l0.1,0.1l-0.3,0.1V56h-0.2
	c0,0.1-0.1,0.2-0.2,0.2h-0.1c0,0.1,0,0.2-0.1,0.3v0.4l-0.2-0.1l-0.1,0.1v0.6l-0.1-0.1v0.2l-0.2,0.5l-0.1,0.1H117l-0.1,0.1l-0.1,0.1
	l-0.1,0.1v0.1c0,0.2-0.1,0.4-0.3,0.5c-0.1,0.1-0.1,0.1-0.1,0.2l-0.1,0.2l0,0v0.2L116,60l-0.1,0.1h-0.1c0,0.1-0.1,0.1-0.2,0.2
	l-0.1,0.1l0,0c0,0.1-0.1,0.2-0.2,0.2l-0.2,0.1l-0.1-0.1l0,0c0,0.1,0,0.1-0.1,0.2L115,61l-0.1,0.1c-0.1,0.1-0.2,0.1-0.4,0.1l0,0v0.2
	c0.1,0.1-0.4,0.5-0.5,0.4l-0.1,0.1l0,0v0.2h-0.1c0,0.1,0,0.2-0.1,0.3l-0.1,0.1H113v0.2l0.1,0.2h-0.2c-0.1,0.1-0.1,0.1-0.2,0.1h-0.1
	v0.1h-0.1c0,0.1,0,0.3-0.1,0.3l-0.1,0.2l-0.2-0.2l0,0v0.2h-0.1l-0.1,0.2h0.1c0,0.2-0.1,0.3-0.3,0.3h-0.1l-0.1-0.2
	c0,0.1,0,0.2-0.1,0.2c0,0.1,0,0.2-0.2,0.3l-0.2,0.2h-0.1v0.1l-0.9,0.3c0.5,0-0.4,0.1-0.2,0.2c-0.1,0.1-0.3,0.1-0.4,0.1l0,0l-0.9,0.2
	c-0.2,0,0.3-0.1,0.2-0.1c-0.7,0.2-0.3,0-0.7,0.1c0.1,0-0.2,0.1-0.6,0.2l0.5-0.1c-0.9,0.3-0.8,0.1-1.8,0.4l0.3-0.1
	c-0.8,0.2-1.6,0.4-2.3,0.6c-0.1,0-0.2,0,0-0.1c-0.2,0-0.3,0.1-0.5,0.1C104.1,66.3,104.7,65.7,105.3,65.3 M136.1,66.3l0.3-0.2l0,0
	c0.1-0.1,0.1-0.2,0-0.4c-0.1-0.1-0.3-0.2-0.4-0.1l0,0c-0.9,0.6-2,1.3-2.9,1.9l0,0l-0.1,0.1c-0.2,0.1-0.3,0.2-0.5,0.3
	c0-0.1,0-0.1,0.1-0.1c0,0,0,0,0,0c-0.2,0.1-0.4,0.3-0.6,0.4l0,0l-0.3,0.2c0.1-0.1-0.1,0,0.1-0.1c-0.6,0.3-0.9,0.7-1.3,0.7l0,0
	c-0.5,0.4-0.4,0.3-0.4,0.3c-0.1,0.1-0.3,0.2-0.4,0.3l-0.3,0.1v0.1c-0.1,0-0.3,0.1-0.2,0.1c-0.3,0.2,0.1,0-0.1,0.1l0,0
	c-0.4,0.2-1.2,0.7-1.4,0.6c-0.1,0.1,0.4-0.2,0,0.1c-0.2,0-0.5,0.3-0.9,0.5c0.1-0.1,0.5-0.3,0-0.1c-0.4,0.2-0.8,0.4-1.2,0.6
	c0,0.1-0.7,0.4-1.3,0.8l-1.7,0.8l0,0c-0.3,0.2-0.7,0.5-1.1,0.6c0-0.1,0-0.1,0.2-0.2l-0.4,0.2c-0.1,0.1-0.2,0.1-0.4,0.3l0.1-0.1
	c-0.5,0.4-1.1,0.6-1.7,0.8c0,0,0.2,0,0.2,0.1c-0.1,0.1-0.2,0.1-0.3,0.2c0-0.1,0-0.1,0.1-0.1c0,0,0,0,0,0c-0.1,0-0.2,0.1-0.3,0.2
	l0.2-0.2c-0.3,0.1-0.1,0.1-0.4,0.2c0,0-0.2,0.1-0.2,0c0.1,0,0.2-0.1,0.3-0.1c-0.3,0.1-0.6,0.3-0.7,0.3c0,0,0,0.1-0.2,0.2
	c-0.5,0.2-0.2,0-0.5,0.1c-0.1,0.1-0.4,0.2-0.4,0.3c-0.1,0.1-0.1,0.1-0.2,0.1c-0.2,0.2-1.3,0.6-0.9,0.5h0.1c-0.8,0.5-1.9,0.7-2.7,1.2
	l0,0c-0.5,0.2-1.2,0.5-1.6,0.7c-0.2,0.1-0.4,0.1-0.3,0c-0.3,0.2-0.7,0.3-1.1,0.4c0.4-0.2-0.1,0,0.4-0.2c-0.5,0.2-0.6,0.2-1.3,0.4
	c0.2-0.1-0.4,0-0.7,0.1l0.4-0.1c-0.3,0.1-0.5,0.2-0.8,0.2l0.1-0.1c-1.2,0.2-2,0.7-2.8,0.6c-0.3,0.1,0.6,0,0.3,0.1
	c-0.4,0.1-0.8,0.1-1.3,0c-0.5,0.1-0.9,0.1-1.4,0c0.1,0,0.2,0.1-0.4,0.1c-0.5-0.1-0.6-0.3-0.3-0.2c0.1,0,0.2,0,0.2,0.1
	c0.2,0,0.4,0.1,0.2,0h-0.1c-0.2-0.1-0.9-0.3-0.7-0.3c-0.4-0.1-0.2,0,0.1,0.1c-0.5-0.2-1-0.5-1.5-0.8c0.1,0.1,0.1,0.2,0,0.1
	c-0.4-0.3-0.4-0.4-0.5-0.4s-0.1,0-0.3-0.3c-0.1-0.3,0.1,0.1-0.2-0.5c0-0.3,0.1-0.1,0.1,0c-0.1-0.2,0-0.4,0.1-0.6
	c0.1-0.2,0.2-0.4,0.3-0.5c0,0.1-0.1,0.2-0.1,0.3c0.1-0.2,0.1-0.3,0.2-0.4l-0.1,0.1c0.1-0.1,0.1-0.2,0.2-0.3c0.1-0.2-0.2,0.1,0-0.3
	c0.2-0.2,0.4-0.6,0.5-0.6c-0.5,0.6,0.1,0-0.3,0.5c0.1-0.1,0.2-0.3,0.3-0.4V76c0.5-0.5,0.1-0.3,0.7-0.8c0,0.1,0.2,0,0.3-0.1
	c-0.2,0.2-0.2,0,0-0.2c0.4-0.2,0.4-0.3,0.7-0.4l0.2-0.4c0.2-0.2,0.4-0.3,0.6-0.4c0,0-0.3,0.2-0.2,0.1c0.3-0.3,0.8-0.3,1.4-0.6
	c0.2-0.1,0.1,0.1,0.3,0c0.5-0.3,0.6-0.2,1.3-0.5c-0.2,0-0.2,0,0.2-0.2l-1.1,0.4l0.6-0.3c-0.3,0.1-0.5,0.2-0.8,0.3
	c0.3-0.2,0.3-0.1,0.1-0.1c0.5-0.1,0.9-0.3,1.4-0.5v0.1c0.7-0.2,1.3-0.5,2.3-0.9l-0.3,0.1c0.1-0.1,0.6-0.2,0.8-0.4c0,0.1,0.2,0,0.3,0
	c0,0,0.7-0.3,0.7-0.4l0.4-0.1c0.5-0.3,1-0.6,1.5-0.9c-0.2,0.2,0.1,0-0.3,0.3c0.2-0.1,0.4-0.2,0.4-0.3c0.3-0.2,0.5-0.4,0.8-0.5
	l0.3-0.3l0,0c0,0,0.3-0.3,0.1-0.2c0.3-0.2,0.6-0.3,0.8-0.5c0.1-0.1,0.5-0.3,0.9-0.6h0.1c0.7-0.4,1.5-1.1,1.6-1.1l0.1-0.1
	c0.1-0.1,0.1-0.1,0.2-0.1c0.3-0.2,0.6-0.5,0.9-0.7c0.8-0.4,1.4-1,1.9-1.8c0.4-0.5,0.8-1.1,1.1-1.7c0.4-0.6,0.7-1.3,0.9-2h0.1
	c0.2-0.8,0.5-1.9,0.7-3c0.1-0.7,0.2-1.5,0.3-2.3c0.1-0.7,0.1-1.3,0-2c-0.1-0.1-0.1-0.3-0.2-0.8v-0.2l-0.1-0.4c0-0.1-0.1-0.2-0.1-0.3
	l-0.1-0.2c0-0.1-0.1-0.2-0.1-0.3l-0.1-0.2c-0.1-0.1-0.1-0.2-0.2-0.3l-0.2-0.4c-0.4-0.9-1-1.6-1.8-2.2c-0.1-0.1-0.1-0.1-0.2-0.1
	l-0.1-0.1c-0.1-0.1-0.2-0.1-0.3-0.1l-0.2-0.1l-0.4-0.1h-0.2c-0.6,0-1.1,0.2-1.6,0.4l-0.2-0.3l-0.1,0.2l0.2,0.1c-0.1,0-0.2,0-0.2,0.1
	c-0.3,0.1-0.6,0.2-0.8,0.3c-0.4,0.2-0.8,0.4-1.3,0.6l-0.4,0.2c-0.4,0.2-0.8,0.4-1.2,0.5c-1.1,0.6-2.1,1.3-3,2.1l-0.7,0.5
	c-0.8,0.6-1.7,1.3-2.3,1.7l0,0c-0.2,0.3-0.4,0.5-0.6,0.7l-1.4,1.4c-0.7,0.7-1.6,1.5-2.3,2.2c-0.3,0.3-0.7,0.6-1.1,0.9l-0.3,0.3l0,0
	c-0.8,0.8-1.6,1.6-2.4,2.3l-0.1-0.1c-0.8,0.7-1.6,1.5-2.4,2.2l-1.2,1.1l-1.2,1.1L94,65.8l-0.5,0.4c-0.3,0.3-0.7,0.7-1.1,0.9L92,67.4
	l0,0l0.1,0.1l0.1,0.2L91,68.7l-0.7,0.5l-0.9,0.6l0.1-0.2L88.8,70l0,0c-0.2,0.1-0.5,0.2-0.7,0.2h-0.5l0.2-0.2c-0.1,0-0.1-0.1-0.2-0.1
	c-0.1-0.1-0.1-0.1-0.1-0.2v-0.1l0.1-0.2l0.2-0.2l0.7-1.4l0.3-0.6c0.1-0.5,0.2-1,0.5-1.5c0.8-2,0.9-2,1.1-2.1
	c0.2-0.3,0.3-0.5,0.4-0.8c0.1-0.3,0.3-0.8,0.5-1.4s0.5-1.3,0.6-1.5l0,0l0.1-0.1c0.3-0.7,0.5-0.9,0.6-1.3c0.1-0.1,0.1-0.2,0.2-0.2
	c0.1-0.3,0.2-0.6,0.3-0.8c0.1-0.4,0.2-0.8,0.2-1.3c0-0.3-0.1-0.5-0.2-0.7c-0.1-0.2-0.2-0.4-0.4-0.6c-0.3-0.3-0.7-0.6-1.1-0.8
	c-0.4-0.2-0.7-0.4-1.2-0.4h-0.2v0.1h-0.9l-0.2,0.1c-0.1,0-0.2,0.1-0.4,0.1c-0.2,0.1-0.3,0.1-0.5,0.2s-0.3,0.2-0.5,0.3
	c-0.6,0.5-1.2,1-1.8,1.6l-0.6,0.6l-1.1,1l-1.7,1.7c-0.7,0.7-1.4,1.6-2.1,2.3l-1.1,1.3c-0.9,1-2.1,2.3-3.3,3.4l-0.4-0.1
	c-0.3,0.3-0.6,0.5-0.9,0.7L72,69.1c-0.1,0.1-0.3,0.2-0.4,0.3l-0.2,0.2c-0.3,0.3-0.7,0.6-1.1,0.8c-0.1,0.1-0.2,0.1-0.3,0.2
	c-0.1,0-0.1,0.1-0.2,0.1c-0.2,0.1-0.4,0.2-0.6,0.2c-0.2,0-0.4-0.1-0.5-0.3c-0.1-0.2-0.1-0.3-0.1-0.5c0-0.2,0-0.4,0.1-0.5
	c0-0.2,0.1-0.3,0.1-0.5c0.2-0.7,0.6-1.4,1.1-2c0.5-1.2,0.8-1.8,1.3-2.6c0.4-0.7,0.8-1.5,1.6-2.7l0.4-0.7l0.1,0.1
	c0.8-1.4,1.5-2.5,2.6-4.8h0.1c0.2-0.3,0.5-0.9,0.9-1.7h-0.1l0.5-0.9c0.7-1.4,1.4-2.6,1.9-3.9l0.2,0.1c0.1-0.3,0.2-0.5,0.3-0.8
	c0.2-0.6,0.2-1.4,0-2c-0.1-0.3-0.3-0.6-0.5-0.8c-0.2-0.2-0.5-0.4-0.7-0.6c-0.2-0.2-0.5-0.3-0.7-0.4l-0.6-0.3l-0.3-0.2
	c-0.1,0-0.1-0.1-0.2-0.1h-0.2c-0.2,0-0.3,0.1-0.4,0.2l-0.4,0.4l-0.2,0.3c-0.3,0.4-0.6,0.9-0.8,1.4l-0.5,0.9l-1.2,1.9
	c-0.5,0.8-1.1,1.7-1.5,2.5c0,0.2,0,0.4-0.1,0.5c-1.1,1.8-2.2,3.6-2.9,4.8c-0.5,0.9-1.1,1.7-1.3,2c-0.8,1.3-1.5,2.6-2.1,4l-0.1,0.2
	c-0.5,1.2-1.2,2.3-1.9,3.4v0.2c-0.4,0.9-0.8,1.7-1.4,2.5l-0.6,0.9c-0.1,0.2-0.3,0.4-0.4,0.5l-0.1,0.1c-0.2,0.3-0.5,0.6-0.7,0.8
	c-0.1,0.1-0.1,0.1-0.2,0.1h-0.1l-0.2,0.2c-0.4,0.4-0.7,0.8-0.9,1.3h0.1c-0.5,0.6-0.9,1.2-1.4,1.7c-0.1,0.2-0.3,0.3-0.5,0.5l-0.7,0.7
	c-0.3,0.3-0.7,0.6-1,0.8c-0.7,0.6-1.4,1.1-2.2,1.5c-0.4,0.2-0.8,0.5-1.3,0.7L50.7,80c0,0.1-0.1,0.2-0.4,0.3
	c-0.5,0.4-1.1,0.6-1.8,0.7h-0.2c-0.3,0-0.6-0.1-0.8-0.3c-0.1-0.1-0.3-0.3-0.3-0.5c0.1-0.2,0.1-0.3,0-0.4c-0.1-0.2-0.2-0.5-0.2-0.7
	v-0.3c-0.1-0.4-0.1-0.9-0.2-1.8c0-0.7,0-1.1,0.1-1.2v-0.5c0-0.6,0-1.2,0.1-1.8c0.2-1.3,0.3-1.5,0.4-1.5c0-0.3,0.1-0.6,0.2-0.9
	c0.1-0.5,0.2-0.9,0.3-1.4l0.3-1.1l0.1-0.1l1.7-1.3c0.5-0.4,1-0.8,1.5-1.3l0,0l-0.1-0.1c0.4-0.3,0.7-0.6,1-0.8
	c0.3-0.3,0.5-0.5,0.8-0.7l0,0v-0.1c-0.1-0.2,0-0.3,0.9-1.3c0.6-0.5,1.4-1.4,2.2-2.1c0.6-0.7,1.3-1.3,2.1-1.9l0.2,0.2
	c0.6-0.6,1.2-1.1,1.7-1.8c0.8-1,1.7-2,2.6-2.9l0.1,0.1c0.2-0.2,0.4-0.4,0.6-0.5c0-0.1,0.2-0.5,1.4-1.8c1.3-1.3,1.8-2,2.3-2.5
	l-0.2-0.3c0.4-0.7,0.9-1.3,1.5-1.9c0.4-0.5,0.9-1.2,1.6-1.9h0.1l1.6-1.9c1.2-1.3,2.4-2.8,3.7-4.4c0.4-0.5,0.6-0.7,0.8-0.7l0.4-0.4
	c0.4-0.6,0.8-1.2,1.2-1.6l-0.3-0.2l0.5-0.7l-0.1-0.1c1.1-1.4,2.2-2.8,3.2-4.3c0.7-1,1.5-2.1,2.2-3.3l0.2-0.2l0.2,0.3
	c1.3-1.9,2.6-3.9,3.7-6c1.1-1.9,2-3.7,2.8-5.6l0,0c0.2-0.5,0.4-1,0.6-1.5c0.5-1.3,1.3-2.9,1.7-4.3h0.4l-0.2-0.1h-0.1
	c0.1-0.2,0.2-0.3,0.2-0.5l0.5-1.4c0-0.1,0.1-0.3,0.2-0.8C93.9,7.6,94,7,94.1,6.4c0.1-0.5,0.2-1.3,0.3-1.9c0-0.4,0-0.8-0.2-1.2
	c-0.1-0.5-0.3-1-0.6-1.5c-0.3-0.4-0.7-0.8-1.1-1c-0.6-0.3-1.2-0.5-1.8-0.6C90.2,0,89.8,0,89.4,0H89c-0.4,0-0.9,0.1-1.3,0.2
	c-0.4,0.1-0.8,0.2-1.2,0.4c-0.7,0.4-1.4,0.8-2.1,1.3l-0.3,0.2c-0.3,0.2-0.5,0.4-0.8,0.6c-0.2,0.2-0.5,0.3-0.7,0.5l-0.7,0.4l-0.2-0.2
	c-0.2,0.1-0.3,0.2-0.4,0.3l0,0l-0.1,0.1c-0.8,0.5-1.6,1.1-2.3,1.8l-0.9,0.7c-0.6,0.5-1.3,1-1.7,1.4c-0.2,0.1-0.3,0.3-0.4,0.4
	c-0.5,0.6-1.1,1.1-1.7,1.6L74,9.9l-0.8,0.8l0.1,0.1c-2.5,2.2-4.9,4.5-7,7c-1.8,2-3.5,4.2-5,6.4l-0.8,1c-2.1,3.3-4,6.7-5.7,10.2l0,0
	c-0.5,1-1,1.9-1.4,2.9c-0.5,1.4-1.1,2.7-1.8,4c-0.4,0.7-0.4,0.7-0.6,0.7h-0.1c-0.3,0.7-0.7,1.7-1.2,2.5c-0.7,1.6-1.5,3.4-2.2,4.7
	l0,0c-0.6,1.5-1.4,3.2-2.2,5.1c-0.5,1.4-1.2,2.8-1.8,4.4l0,0l-0.4,1l-0.2,0.4l-0.1,0.2l-0.4,0.5c-0.7,0.7-1.5,1.7-2.3,2.5
	c-1.4,1.5-2.7,2.9-4,4.3h-0.1l-0.1,0.3l-0.5,0.6l0,0l-0.2,0.2l-0.4-0.3l0.3-0.5l0.2-0.4l0,0c0.4-0.8,0.9-1.5,1.5-2.2l0,0l0.9-1.9
	l0.4-0.7h0.1c0.5-0.9,0.9-1.9,1.2-2.8c0.1-0.4,0.2-0.8,0.2-1.3c0-0.4-0.1-0.8-0.3-1.2c-0.3-0.3-0.6-0.6-0.9-0.8
	c-0.4-0.2-0.8-0.4-1.3-0.5h-0.1c-0.2-0.1-0.5-0.1-0.7-0.1c-0.1,0-0.3,0-0.4,0.1c0.1,0.2,0,0.3-0.1,0.3c-0.3,0.3-0.7,0.7-0.9,1h0.1
	c-0.3,0.5-0.6,0.9-0.8,1.4L33.4,61c0,0.1-0.1,0.1-0.1,0.2l-0.2,0.2c-0.8,0.7-1.5,1.4-2.1,2.2c-0.2,0.1-0.3,0.2-0.5,0.3L30.1,64
	l-4,4.5c-0.5,0.6-1,1.2-1.5,1.8l-2,2.4l-0.1-0.1c-0.1,0.1-0.2,0.3-0.4,0.5c-1.2,1.5-2.5,3-3.9,4.3l-0.4,0.6l0.1-0.3
	c-0.2,0.2-0.5,0.4-0.7,0.6c-1.1,0.9-2.2,1.7-3.4,2.5c-0.7,0.4-1.4,0.8-2.2,1.2c-0.5,0.2-1.1,0.3-1.7,0.3c-0.2,0-0.4,0-0.6-0.1
	c-0.6-0.2-1-0.7-1.2-1.3C8.1,80.6,8,80.2,8,79.7c-0.1-0.9-0.1-1.8-0.1-2.7v-1.7C7.9,75,8,74.6,8,74.2c0.3-1.9,0.8-3.8,1.5-5.6
	c0.5-1.6,1.3-3.4,2.2-5.6c0.7-1.8,1.5-3.3,2.2-4.7l0,0c-0.1-0.1-0.1-0.2,0.4-1l0.2-0.4c0.1-0.3,0.3-0.7,0.5-0.9l-0.2,0.1l0.3-0.6
	c0.5-0.8,1-1.7,1.5-2.6l0,0c1.2-1.8,2.3-3.6,3.5-5.1c0.2-0.3,0.3-0.4,0.4-0.4h0.1c0.1-0.2,0.3-0.4,0.5-0.6c0.4-0.4,0.7-0.8,0.9-1.3
	c0.1-0.2,0.2-0.4,0.3-0.6h-0.3c1.8-2.6,2.6-3.7,3.5-4.7c0.3-0.3,0.6-0.7,0.8-1l0.5-0.6c0.3-0.4,0.7-0.7,0.9-1.2l1.3-1.6l0.1,0.1
	c1-1.3,2.4-2.7,3.7-4.2l0.6-0.6l0.9-0.9l1.5-1.5c0.5-0.4,0.9-0.8,1.4-1.2c0.2-0.2,0.4-0.4,0.6-0.5c0.2-0.1,0.3-0.2,0.4-0.4
	c0.6-0.4,0.6-0.4,0.7-0.4h0.1c0.4-0.2,0.7-0.5,1.2-0.7l0.5-0.3l1.3-0.6c0.4-0.2,0.9-0.4,1.4-0.5c0.4-0.2,0.9-0.2,1.4-0.2h0.1
	c0.2,0,0.4,0,0.5,0.1c0.2,0.1,0.4,0.2,0.5,0.3l0.1,0.1c0.1,0.1,0.1,0.2,0.2,0.3l0.1,0.3c0,0.1,0.1,0.1,0.1,0.2l0.1,0.2
	c0.2,0.4,0.5,0.9,0.7,1.4c0.5,0.9,1.1,1.8,1.9,2.5c0.4,0.4,0.9,0.6,1.5,0.7h0.2c0.2,0,0.4,0,0.6-0.1c0.3-0.1,0.5-0.3,0.7-0.4
	c0.4-0.4,0.7-0.7,0.9-1.2l0.1-0.2v-0.1l0.1-0.3c0-0.1,0.1-0.3,0.1-0.4l0.1-0.2c0.2-0.8,0.4-1.7,0.5-2.4h0.1c0.1-0.5,0.1-1,0-1.5
	c0-0.8-0.1-1.6-0.2-2.4h0.1v-0.1c-0.2-0.8-0.6-1.6-1.2-2.3c-0.5-1.1-1.4-2-2.4-2.5l0.1-0.1c-0.3-0.2-0.7-0.3-1-0.4
	c-0.8-0.3-1.6-0.5-2.4-0.6c-0.6-0.1-1.1-0.1-1.7-0.1c-1,0-1.9,0.1-2.8,0.4c-1.3,0.4-2.6,1.1-3.7,2c-1.2,0.9-2.2,1.9-3.4,2.9
	l-0.2,0.1v-0.1c-0.9,0.6-1.7,1.3-2.4,2c-1.6,1.4-3.1,2.7-4.2,3.7l0,0c-1.7,1.6-3,3-4.3,4.4c-0.6,0.7-1.2,1.5-1.8,2.3
	c-0.5,0.7-1,1.6-1.6,2.3c-1.9,2.7-3.7,5.6-6.2,9.6c-0.8,1.2-1.8,2.6-2.7,4.1c-1.1,1.8-2.2,3.8-3.1,5.8C8.1,55.7,7,57.9,6,60.2
	l-1.5,3.2c-0.4,0.8-0.8,1.6-1,2.4c-0.1,0.7-0.3,1.4-0.5,2.1V68c-0.3,1.1-0.6,2.4-0.8,3.3l-0.4,0.2c-0.2,1.3-0.3,1.5-0.5,1.5
	c-0.1,0.7-0.3,1.7-0.5,2.7c-0.2,1.3-0.4,2.8-0.6,4.7l0.3,0.5V81C0.1,82,0,83.1,0,84.1c0,1.2,0.2,2.4,0.5,3.6
	c0.4,1.2,1.1,2.4,2.1,3.3C2.7,91,2.8,91,2.9,91.1l0.5,0.3c0.3,0.2,0.5,0.3,0.8,0.4c0.6,0.3,1.2,0.5,1.8,0.7c0.7,0.2,1.3,0.3,2,0.3
	c0.3,0,0.6,0,0.8-0.1c0.3-0.1,0.6-0.2,0.8-0.3c1-0.4,2-0.9,2.8-1.6l3.9-2.7c0.8-0.7,1.6-1.6,2.3-2.2c0.7-0.7,1.4-1.5,2-2.4l0.2-0.3
	l0.1,0.2l2-2.3l0.3-0.3c0.3-0.3,0.6-0.8,1-1.3l0.3,0.2l-0.2,0.3l-2.7,4.2h-0.1c-0.5,0.8-1,1.6-1.4,2.4l-0.1,0.1
	c-0.6,1.1-1.3,2.2-2.1,3.3c-0.3,0.2-0.5,0.4-0.8,0.6c-1,1.4-2.1,2.6-3.1,3.8l-0.4,0.4l-0.8,0.8l-0.4,0.5c-0.5,0.6-1.1,1.3-1.6,2
	c-0.9,1.4-1.7,2.9-2.4,4.4c-0.7,1.5-1.2,3-1.6,4.6H6.8c-0.1,0.5-0.3,1.2-0.4,1.8c-0.2,1.3-0.3,2.7-0.1,4c0.1,1.1,0.5,2.1,0.9,3
	c0.1,0.2,0.3,0.4,0.4,0.6l0,0L7.5,117h0.4c0,0.1,0,0.2,0.1,0.2c0.1,0.2,0.3,0.4,0.5,0.7c0.1,0.1,0.1,0.2,0.2,0.3l0.3,0.3l0.3,0.3
	l0.6,0.5c0.1,0.1,0.3,0.2,0.4,0.3c0.1,0,0.2,0,0.2,0.1c1,0.6,2.2,0.9,3.4,0.9h0.8l0.8-0.1c0.2,0,0.3-0.1,0.5-0.1l0.6-0.2l0.3-0.1
	l0.1,0.1l0.4-0.2c0.2-0.1,0.4-0.2,0.5-0.3l0.4-0.2c0.1-0.1,0.3-0.2,0.4-0.2c0.2-0.1,0.4-0.3,0.5-0.5c0.9-1,1.7-2.1,2.3-3.4
	c0.3-0.5,0.4-0.6,0.5-0.6l0.7-1.5l0.1-0.1c0.3-0.6,0.6-1.4,1.5-3.3h0.1c0.2-0.5,0.4-1,0.5-1.5c0.1-0.4,0.2-0.8,0.4-1.2l0.2-0.6
	l1.5-4.1c0.3-0.8,0.6-1.6,0.9-2.3c0.2-1.5,0.5-2.9,0.9-4.3l0.1-0.2l0,0c0.6-2.2,0.8-4,1.2-5.6c0.2-1.1,0.3-2.1,0.4-3.2
	c0.1-0.7,0.2-1.5,0.3-2.4c0,0,0.1-0.1,0.1-0.5h0.1c0-0.5,0.1-1.1,0.1-1.6v-2c0-0.1,0.1-0.2,0.1-0.3l0.3-0.2l0.3-0.3l0,0
	c0.4-0.4,0.8-0.8,1.3-1.2c0.4-0.3,0.8-0.7,1.2-1.1l0.5-0.5L35.2,77c1.1-1.2,2.2-2.4,3.5-3.5l0.2-0.3C39,73.1,39,73.1,39,73
	c0.1-0.1,0.2-0.3,0.3-0.4c0.2-0.3,0.4-0.6,0.6-0.8l1-0.8v0.9l-0.6,2c-0.2,0.8-0.4,1.7-0.5,2.3c-0.1,0.5-0.2,0.8-0.2,0.9
	c-0.1,0.6-0.1,1.5-0.2,2.2v0.2c0,0.6-0.1,1.4-0.1,2c-0.1,1.6,0.1,3.1,0.5,4.6c0.4,1.4,1.3,2.7,2.6,3.5c0.9,0.5,1.8,0.8,2.8,0.7h0.4
	c0.5,0,0.9,0,1.4-0.1h0.3c0.3,0,0.6,0,0.8-0.1l0,0c0.1,0,0.2-0.1,0.3-0.1c1-0.3,2-0.8,2.9-1.4c0.8-0.5,1.5-1,2.2-1.6
	c0.4-0.3,0.7-0.7,1-1.1c0.2-0.2,0.5-0.5,0.7-0.6l0.2-0.3v0.4l0.6-0.8l0.1-0.1l0,0v-0.1l0,0v-0.1l0.3-0.3h0.1l0.3-0.3
	c0.2-0.3,0.5-0.6,0.7-0.8c0.4-0.5,0.8-1.2,1.3-1.8l1.2-1.7l0.7-1.2l0.3,0.9c0.1,0.2,0.2,0.5,0.2,0.7c0.3,0.8,0.7,1.5,1.4,2.1
	c0.3,0.3,0.7,0.5,1.2,0.5h0.4c0.3,0,0.6,0,0.8-0.1c0.8-0.3,1.5-0.6,2.2-1.2c1.8-1.4,3.5-2.9,5.4-4.6c0.6-0.5,1.3-1.2,2-1.8l0,0
	l0.3-0.3l0.6-0.6l0.9-0.9c0.6-0.6,1.3-1.3,2-1.9l0.9-0.8l0.6-0.6c0.2-0.2,0.5-0.4,0.7-0.5c0.1,0,0.1-0.1,0.3-0.1h0.1l0.1,0.1v0.1
	l-0.2,0.6c-0.1,0.3-0.3,0.7-0.4,1.1c-0.1,0.2-0.1,0.5-0.2,0.7v0.2c-0.1,0.2-0.1,0.5-0.2,0.7c-0.3,1.2-0.4,2.5-0.2,3.8
	c0.2,1.3,0.8,2.5,1.7,3.5c0.2,0.2,0.5,0.4,0.7,0.6c0.3,0.2,0.6,0.3,0.9,0.3h0.5c0.5,0,0.9-0.1,1.4-0.2c1.2-0.5,2.3-1.1,3.4-1.9
	c0.8-0.6,1.6-1.3,2.3-1.9l0.6-0.5c0.5-0.5,1.2-0.9,1.7-1.5c0.4-0.3,0.8-0.7,1.2-1.1l0.2-0.2l-0.3,0.9c-0.3,0.6-0.5,1.2-0.5,1.8
	c-0.1,0.7-0.1,1.5,0,2.2c0-0.2,0.1,0,0.1,0.2c0,0.3,0.3,0.8,0.2,0.7v-0.1c0.1,0.5,0.3,0.9,0.5,1.3h0.2c0.3,0.7,0.8,1.3,1.4,1.8
	c0.6,0.5,1.2,0.8,1.5,1.2c0.3,0.1,0.6,0.3,0.9,0.4V84c0.7,0.4,1.4,0.7,2.2,0.8h-0.2c0.6,0.2,0.7,0,1.4,0.1l0.1,0.1
	c1,0.2,2.1,0.3,3.2,0.1c0,0,0,0.1-0.2,0.1c0.2,0,0.7-0.1,1.2-0.1s0.7-0.1,0.6-0.2c0.5-0.1,1.1-0.2,1.6-0.4l-0.1,0.1
	c0.3-0.2,0.7-0.3,1.1-0.4c0.1,0,0.1,0-0.1,0.1c0.5-0.1,0.3-0.2,0.9-0.3l-0.2,0.1c0.5-0.2,0.4-0.2,0.7-0.3c0.3-0.1,0.7-0.2,1.1-0.3
	c0-0.1,0.3-0.2,0.6-0.3c0,0.1,0,0.1-0.1,0.1c0,0,0,0,0,0c0.8-0.3,1.2-0.6,1.8-0.8h0.1c-0.6,0.3-1.2,0.5-1.2,0.5
	c0,0.1,0.5-0.2,0.2,0.1c0.4-0.2,1.1-0.6,1.6-0.9h0.1c0.1-0.1,0.2-0.1,0.3-0.2c0.2-0.1,0.3-0.1,0.4-0.2c0.3-0.1,0.6-0.3,0.8-0.4
	c-0.1-0.1,0.3-0.2-0.1-0.1l-0.2,0.1c-0.1,0-0.1,0-0.1,0.1c0,0,0,0,0,0l0,0l-0.6,0.3c0.2-0.1,0.4-0.3,0.6-0.4l0.3-0.3
	c0.4-0.1,1.1-0.4,1.2-0.4c0.8-0.4,1.5-0.9,2.1-1.5c0.2-0.1,0.2-0.1,0.3-0.1c-0.1,0.1-0.2,0.2-0.3,0.2c0.4-0.3,0.9-0.6,1.3-0.9
	c0.5-0.3-0.2,0.3,0.4-0.2l-0.1,0.1c1.5-0.8,2.1-1.8,3.7-2.7c-0.1,0.1-0.1,0.1-0.2,0.1c0.8-0.6,1.8-1.3,2.6-1.9
	c0.8-0.6,1.8-1.3,2.6-1.9c0.3-0.2,0.6-0.4,0.7-0.7h0.1l0.4-0.4c0.6-0.6,1.3-0.8,2.1-1.6h-0.1c0.3-0.2,0.9-0.8,0.9-0.7l0.2-0.2l0,0
	l0.7-0.6c0.6-0.4,0,0.2,0.8-0.5c0.3-0.3,0.8-0.8,0.6-0.7C136.6,66.2,136.3,66.2,136.1,66.3 M116.1,76.6l-0.3,0.1
	C115.9,76.8,116,76.7,116.1,76.6 M113.6,69.1L113.6,69.1c-0.1,0-0.1,0.1-0.2,0.1C113.5,69.2,113.5,69.2,113.6,69.1 M101.4,75.5
	L101.4,75.5C101.3,75.6,101.4,75.6,101.4,75.5 M110,71.2L110,71.2 M126.2,71.3L126.2,71.3 M128.2,70.2l0.6-0.3c-0.1,0-0.3,0.1,0-0.1
	C128,70.1,129.1,69.7,128.2,70.2 M94.9,81c0.1,0.1,0.2,0.3,0.3,0.4l-0.1-0.2L94.9,81z M121.6,73.9L121.6,73.9
	c0.1-0.1,0.1-0.1,0.2-0.1L121.6,73.9z M125.5,71.8c0-0.1,0.1-0.1,0.2-0.1h-0.1L125.5,71.8L125.5,71.8z M103.1,79.8L103.1,79.8"/>
</svg>
